<?xml version="1.0" encoding="UTF-8" standalone="no"?>
<svg width="51px" height="51px" viewBox="0 0 51 51" version="1.1" xmlns="http://www.w3.org/2000/svg" xmlns:xlink="http://www.w3.org/1999/xlink">
    <!-- Generator: Sketch 50.2 (55047) - http://www.bohemiancoding.com/sketch -->
    <title>Rounded_1_</title>
    <desc>Created with Sketch.</desc>
    <defs></defs>
    <g id="Page-1" stroke="none" stroke-width="1" fill="none" fill-rule="evenodd">
        <g id="Desktop" transform="translate(-961.000000, -982.000000)" fill="#FFFFFF" fill-rule="nonzero">
            <g id="Langues" transform="translate(947.000000, 815.000000)">
                <g id="round-chat-24px" transform="translate(10.000000, 163.000000)">
                    <g id="Rounded_1_" transform="translate(4.838710, 4.838710)">
                        <path d="M44.8185484,0 L4.97983871,0 C2.24092742,0 0.0248991935,2.24092742 0.0248991935,4.97983871 L0,49.7983871 L9.95967742,39.8387097 L44.8185484,39.8387097 C47.5574597,39.8387097 49.7983871,37.5977823 49.7983871,34.858871 L49.7983871,4.97983871 C49.7983871,2.24092742 47.5574597,0 44.8185484,0 Z M12.4495968,17.4294355 L37.3487903,17.4294355 C38.718246,17.4294355 39.8387097,18.5498992 39.8387097,19.9193548 C39.8387097,21.2888105 38.718246,22.4092742 37.3487903,22.4092742 L12.4495968,22.4092742 C11.0801411,22.4092742 9.95967742,21.2888105 9.95967742,19.9193548 C9.95967742,18.5498992 11.0801411,17.4294355 12.4495968,17.4294355 Z M27.3891129,29.8790323 L12.4495968,29.8790323 C11.0801411,29.8790323 9.95967742,28.7585685 9.95967742,27.3891129 C9.95967742,26.0196573 11.0801411,24.8991935 12.4495968,24.8991935 L27.3891129,24.8991935 C28.7585685,24.8991935 29.8790323,26.0196573 29.8790323,27.3891129 C29.8790323,28.7585685 28.7585685,29.8790323 27.3891129,29.8790323 Z M37.3487903,14.9395161 L12.4495968,14.9395161 C11.0801411,14.9395161 9.95967742,13.8190524 9.95967742,12.4495968 C9.95967742,11.0801411 11.0801411,9.95967742 12.4495968,9.95967742 L37.3487903,9.95967742 C38.718246,9.95967742 39.8387097,11.0801411 39.8387097,12.4495968 C39.8387097,13.8190524 38.718246,14.9395161 37.3487903,14.9395161 Z" id="Shape"></path>
                    </g>
                </g>
            </g>
        </g>
    </g>
</svg>