<?xml version="1.0" encoding="UTF-8" standalone="no"?>
<svg width="50px" height="46px" viewBox="0 0 50 46" version="1.1" xmlns="http://www.w3.org/2000/svg" xmlns:xlink="http://www.w3.org/1999/xlink">
    <!-- Generator: Sketch 50.2 (55047) - http://www.bohemiancoding.com/sketch -->
    <title>Rounded</title>
    <desc>Created with Sketch.</desc>
    <defs></defs>
    <g id="Page-1" stroke="none" stroke-width="1" fill="none" fill-rule="evenodd">
        <g id="Desktop" transform="translate(-655.000000, -985.000000)" fill="#FFFFFF" fill-rule="nonzero">
            <g id="Skills" transform="translate(640.000000, 815.000000)">
                <g id="round-developer_board-24px" transform="translate(10.000000, 163.000000)">
                    <g id="Rounded" transform="translate(5.000000, 7.500000)">
                        <path d="M50,12.5 C50,11.125 48.875,10 47.5,10 L45,10 L45,5 C45,2.25 42.75,0 40,0 L5,0 C2.25,0 0,2.25 0,5 L0,40 C0,42.75 2.25,45 5,45 L40,45 C42.75,45 45,42.75 45,40 L45,35 L47.5,35 C48.875,35 50,33.875 50,32.5 C50,31.125 48.875,30 47.5,30 L45,30 L45,25 L47.5,25 C48.875,25 50,23.875 50,22.5 C50,21.125 48.875,20 47.5,20 L45,20 L45,15 L47.5,15 C48.875,15 50,13.875 50,12.5 Z M37.5,40 L7.5,40 C6.125,40 5,38.875 5,37.5 L5,7.5 C5,6.125 6.125,5 7.5,5 L37.5,5 C38.875,5 40,6.125 40,7.5 L40,37.5 C40,38.875 38.875,40 37.5,40 Z M11.25,25 L21.25,25 C21.95,25 22.5,25.55 22.5,26.25 L22.5,33.75 C22.5,34.45 21.95,35 21.25,35 L11.25,35 C10.55,35 10,34.45 10,33.75 L10,26.25 C10,25.55 10.55,25 11.25,25 Z M26.25,10 L33.75,10 C34.45,10 35,10.55 35,11.25 L35,16.25 C35,16.95 34.45,17.5 33.75,17.5 L26.25,17.5 C25.55,17.5 25,16.95 25,16.25 L25,11.25 C25,10.55 25.55,10 26.25,10 Z M11.25,10 L21.25,10 C21.95,10 22.5,10.55 22.5,11.25 L22.5,21.25 C22.5,21.95 21.95,22.5 21.25,22.5 L11.25,22.5 C10.55,22.5 10,21.95 10,21.25 L10,11.25 C10,10.55 10.55,10 11.25,10 Z M26.25,20 L33.75,20 C34.45,20 35,20.55 35,21.25 L35,33.75 C35,34.45 34.45,35 33.75,35 L26.25,35 C25.55,35 25,34.45 25,33.75 L25,21.25 C25,20.55 25.55,20 26.25,20 Z" id="Shape"></path>
                    </g>
                </g>
            </g>
        </g>
    </g>
</svg>