<?xml version="1.0" encoding="UTF-8" standalone="no"?>
<svg width="61px" height="47px" viewBox="0 0 61 47" version="1.1" xmlns="http://www.w3.org/2000/svg" xmlns:xlink="http://www.w3.org/1999/xlink">
    <!-- Generator: Sketch 50.2 (55047) - http://www.bohemiancoding.com/sketch -->
    <title>Rounded</title>
    <desc>Created with Sketch.</desc>
    <defs></defs>
    <g id="Page-1" stroke="none" stroke-width="1" fill="none" fill-rule="evenodd">
        <g id="Desktop" transform="translate(-698.000000, -277.000000)" fill="#FFFFFF" fill-rule="nonzero">
            <g id="Contact" transform="translate(678.000000, 133.000000)">
                <g id="Rounded" transform="translate(20.000000, 144.000000)">
                    <path d="M54.2222222,0 L6.77777778,0 C3.05,0 0,3.02142857 0,6.71428571 L0,33.5714286 C0,40.9907143 6.06611111,47 13.5555556,47 L33.8888889,47 C41.3783333,47 47.4444444,40.9907143 47.4444444,33.5714286 L47.4444444,23.5 L54.2222222,23.5 C57.95,23.5 61,20.4785714 61,16.7857143 L61,6.71428571 C61,3.02142857 57.95,0 54.2222222,0 Z M54.2222222,16.7857143 L47.4444444,16.7857143 L47.4444444,6.71428571 L54.2222222,6.71428571 L54.2222222,16.7857143 Z" id="Shape"></path>
                </g>
            </g>
        </g>
    </g>
</svg>